<?xml version="1.0" encoding="UTF-8" standalone="no"?>
<!DOCTYPE svg PUBLIC "-//W3C//DTD SVG 1.1//EN" "http://www.w3.org/Graphics/SVG/1.1/DTD/svg11.dtd">
<svg xmlns="http://www.w3.org/2000/svg" version="1.1" viewBox="0.00 0.00 860.00 1134.00">
<g stroke-width="2.00" fill="none" stroke-linecap="butt">
<path stroke="#9b9b9b" vector-effect="non-scaling-stroke" d="
  M 144.16 487.35
  C 84.81 488.66 38.08 531.27 31.47 590.25
  C 30.14 602.19 31.00 619.77 31.00 628.83
  Q 30.99 783.51 31.01 938.19
  Q 31.01 951.31 31.89 958.15
  C 39.17 1014.76 87.66 1057.75 145.00 1057.75
  Q 429.99 1057.76 714.99 1057.75
  C 779.51 1057.74 829.97 1006.47 829.98 942.50
  Q 830.02 775.90 829.99 609.30
  Q 829.99 595.86 829.28 589.33
  C 823.05 531.77 776.45 489.54 718.52 487.39
  Q 717.99 487.37 717.99 486.84
  Q 718.00 434.79 718.01 382.74
  C 718.05 231.34 646.87 69.46 479.97 44.54
  Q 420.57 35.67 363.76 48.02
  C 289.35 64.20 229.85 112.19 193.56 179.03
  C 159.03 242.63 144.70 314.84 144.75 386.75
  Q 144.79 436.76 144.73 486.77
  Q 144.73 487.34 144.16 487.35"
/>
<path stroke="#9b9b9b" vector-effect="non-scaling-stroke" d="
  M 259.56 487.25
  L 603.24 487.25
  Q 603.73 487.25 603.73 486.76
  Q 603.79 433.26 603.75 379.76
  C 603.72 349.17 599.62 318.76 591.64 289.22
  C 583.20 257.98 568.72 226.70 547.41 202.33
  C 491.16 138.02 369.06 138.93 314.08 203.83
  C 273.20 252.09 258.99 322.86 259.00 384.01
  Q 259.00 435.44 259.00 486.69
  A 0.56 0.56 0.0 0 0 259.56 487.25"
/>
</g>
<path fill="#f7f7f7" d="
  M 0.00 0.00
  L 860.00 0.00
  L 860.00 1134.00
  L 0.00 1134.00
  L 0.00 0.00
  Z
  M 144.16 487.35
  C 84.81 488.66 38.08 531.27 31.47 590.25
  C 30.14 602.19 31.00 619.77 31.00 628.83
  Q 30.99 783.51 31.01 938.19
  Q 31.01 951.31 31.89 958.15
  C 39.17 1014.76 87.66 1057.75 145.00 1057.75
  Q 429.99 1057.76 714.99 1057.75
  C 779.51 1057.74 829.97 1006.47 829.98 942.50
  Q 830.02 775.90 829.99 609.30
  Q 829.99 595.86 829.28 589.33
  C 823.05 531.77 776.45 489.54 718.52 487.39
  Q 717.99 487.37 717.99 486.84
  Q 718.00 434.79 718.01 382.74
  C 718.05 231.34 646.87 69.46 479.97 44.54
  Q 420.57 35.67 363.76 48.02
  C 289.35 64.20 229.85 112.19 193.56 179.03
  C 159.03 242.63 144.70 314.84 144.75 386.75
  Q 144.79 436.76 144.73 486.77
  Q 144.73 487.34 144.16 487.35
  Z"
/>
<path fill="#3e3e3e" d="
  M 144.73 486.77
  Q 144.79 436.76 144.75 386.75
  C 144.70 314.84 159.03 242.63 193.56 179.03
  C 229.85 112.19 289.35 64.20 363.76 48.02
  Q 420.57 35.67 479.97 44.54
  C 646.87 69.46 718.05 231.34 718.01 382.74
  Q 718.00 434.79 717.99 486.84
  Q 717.99 487.37 718.52 487.39
  C 776.45 489.54 823.05 531.77 829.28 589.33
  Q 829.99 595.86 829.99 609.30
  Q 830.02 775.90 829.98 942.50
  C 829.97 1006.47 779.51 1057.74 714.99 1057.75
  Q 429.99 1057.76 145.00 1057.75
  C 87.66 1057.75 39.17 1014.76 31.89 958.15
  Q 31.01 951.31 31.01 938.19
  Q 30.99 783.51 31.00 628.83
  C 31.00 619.77 30.14 602.19 31.47 590.25
  C 38.08 531.27 84.81 488.66 144.16 487.35
  Q 144.73 487.34 144.73 486.77
  Z
  M 259.56 487.25
  L 603.24 487.25
  Q 603.73 487.25 603.73 486.76
  Q 603.79 433.26 603.75 379.76
  C 603.72 349.17 599.62 318.76 591.64 289.22
  C 583.20 257.98 568.72 226.70 547.41 202.33
  C 491.16 138.02 369.06 138.93 314.08 203.83
  C 273.20 252.09 258.99 322.86 259.00 384.01
  Q 259.00 435.44 259.00 486.69
  A 0.56 0.56 0.0 0 0 259.56 487.25
  Z"
/>
<path fill="#f7f7f7" d="
  M 259.56 487.25
  A 0.56 0.56 0.0 0 1 259.00 486.69
  Q 259.00 435.44 259.00 384.01
  C 258.99 322.86 273.20 252.09 314.08 203.83
  C 369.06 138.93 491.16 138.02 547.41 202.33
  C 568.72 226.70 583.20 257.98 591.64 289.22
  C 599.62 318.76 603.72 349.17 603.75 379.76
  Q 603.79 433.26 603.73 486.76
  Q 603.73 487.25 603.24 487.25
  L 259.56 487.25
  Z"
/>
</svg>
