<?xml version="1.0" encoding="UTF-8" standalone="no"?>
<!DOCTYPE svg PUBLIC "-//W3C//DTD SVG 1.1//EN" "http://www.w3.org/Graphics/SVG/1.1/DTD/svg11.dtd">
<svg xmlns="http://www.w3.org/2000/svg" version="1.1" viewBox="0.00 0.00 512.00 512.00">
<path fill="#000000" d="
  M 225.45 256.53
  A 0.67 0.66 -45.3 0 0 225.45 255.58
  Q 169.04 199.17 112.44 142.56
  C 105.73 135.85 105.17 124.45 109.95 116.88
  C 117.21 105.40 133.31 103.26 143.16 113.09
  Q 199.40 169.27 255.61 225.48
  Q 255.99 225.86 256.37 225.48
  Q 312.47 169.46 368.42 113.45
  C 376.91 104.94 391.01 104.44 399.37 113.41
  C 407.30 121.91 407.21 134.91 398.81 143.32
  Q 342.75 199.37 286.64 255.49
  A 0.72 0.72 0.0 0 0 286.64 256.51
  Q 342.43 312.31 398.43 368.31
  C 413.70 383.57 400.98 408.73 379.69 404.88
  Q 373.87 403.83 368.76 398.74
  Q 312.61 342.76 256.50 286.64
  A 0.72 0.72 0.0 0 0 255.48 286.64
  Q 199.51 342.64 143.30 398.80
  C 126.61 415.48 98.77 396.61 108.58 375.58
  Q 110.50 371.45 118.10 363.82
  Q 171.61 310.05 225.45 256.53
  Z"
/>
</svg>
